<?xml version="1.0" encoding="UTF-8"?>
<!DOCTYPE svg PUBLIC "-//W3C//DTD SVG 1.1//EN" "http://www.w3.org/Graphics/SVG/1.1/DTD/svg11.dtd">
<!-- Creator: CorelDRAW X7 -->
<svg xmlns="http://www.w3.org/2000/svg" xml:space="preserve" width="33.0198mm" height="12.6998mm" version="1.1" style="shape-rendering:geometricPrecision; text-rendering:geometricPrecision; image-rendering:optimizeQuality; fill-rule:evenodd; clip-rule:evenodd"
viewBox="0 0 3302 1270"
 xmlns:xlink="http://www.w3.org/1999/xlink">
 <defs>
  <style type="text/css">
   <![CDATA[
    .fil1 {fill:#0E253F}
    .fil0 {fill:#14365B}
    .fil4 {fill:#FFD43B}
    .fil7 {fill:white}
    .fil2 {fill:white;fill-rule:nonzero}
    .fil5 {fill:#1A0000;fill-opacity:0.200000}
    .fil3 {fill:black;fill-opacity:0.301961}
    .fil6 {fill:black;fill-opacity:0.349020}
   ]]>
  </style>
 </defs>
 <g id="Capa_x0020_1">
  <metadata id="CorelCorpID_0Corel-Layer"/>
  <g id="_142100089360">
   <path class="fil0" d="M640 -2c333,1 605,258 632,584l-508 677c-42,9 -85,13 -129,13 -338,-1 -613,-265 -634,-596l512 -666c41,-8 83,-12 127,-12z"/>
   <path class="fil1" d="M568 44c25,-17 48,-33 72,-46 -260,-1 -497,157 -595,401 -34,85 -49,176 -44,267 1,26 4,52 8,77 11,-23 23,-45 35,-65 12,-19 26,-52 44,-65 24,-16 47,-11 69,6 33,26 113,101 154,105 17,2 25,-10 22,-25 -4,-17 -23,-37 -47,-57 -40,-32 -86,-66 -100,-81 -17,-19 -21,-34 -16,-51 6,-28 34,-70 47,-92 10,-16 22,-33 34,-50l0 0c83,-118 213,-257 286,-300l0 0 31 -24z"/>
   <path class="fil1" d="M706 1226c-24,17 -48,33 -71,46 259,1 497,-157 594,-401 33,-82 49,-172 44,-268 -1,-25 -4,-51 -8,-77 -11,23 -22,45 -35,66l-17 27c-12,17 -32,58 -48,69 -23,16 -47,11 -68,-5 -34,-27 -114,-102 -155,-106 -17,-1 -25,11 -22,25 4,17 23,38 48,57 39,32 85,66 99,82 26,28 21,48 4,82 -57,121 -237,323 -334,379l0 0 -31 24z"/>
   <path class="fil2" d="M1095 286c-3,-4 -2,-10 2,-13 4,-3 10,-3 13,1 35,46 63,96 84,151 19,53 32,109 36,169 12,163 -44,316 -144,431 -100,115 -244,192 -407,203 -164,12 -317,-45 -432,-144 -115,-100 -191,-244 -203,-408 -11,-163 45,-316 144,-431 100,-115 243,-191 406,-203l5 0c68,-5 134,3 197,20 65,18 127,47 182,86 4,3 5,9 2,13 -3,4 -9,5 -13,2 -53,-37 -113,-65 -176,-83 -62,-17 -127,-24 -194,-19 -159,11 -298,85 -394,196 -97,112 -151,260 -140,418 11,159 85,298 197,394 111,97 259,151 417,140 159,-11 298,-85 395,-196 96,-112 150,-260 139,-418 -4,-57 -16,-112 -35,-163 -20,-53 -48,-102 -81,-146z"/>
   <path class="fil3" d="M324 510l0 0c2,118 35,198 148,233 22,7 44,11 66,12 43,4 67,2 108,2 63,1 147,23 142,95 1,-4 2,-8 2,-13l0 0 0 -1c0,0 0,-1 0,-2l0 0 0 -1 0 0 0 0c1,-1 1,-2 1,-3l0 0 0 -1 0 0 0 -1 0 0 0 0 0 -2 0 0 0 0 0 0 0 -1 0 0 0 0 0 -1 0 0 0 -1 0 0 0 0 0 -1 0 0 0 -1 0 0 -1 0 0 0 0 -1 0 0 0 -1 0 0 0 -1 0 0 0 0 0 0 0 -1 0 0 0 -1 0 0 0 0 0 -1 0 0 0 0 0 -1 0 0 0 -1 0 0 0 0 0 -1 0 0 -1 -1 0 0 0 -1 0 -1 0 0 0 0 0 -1 0 0 0 0 0 -1 0 0 0 -1 0 0 0 0 0 0 -1 -1 0 -1 0 -1 0 0 0 0 0 -1 0 -1 -1 0 0 -1 0 0 0 -1 0 -1 0 0 0 0 -1 -1 0 -1 0 0 0 -1 -1 -1 0 -1 0 0 0 0 0 0 0 -1 0 0 -1 -1 0 0 0 0 0 0 0 -1 0 -1 -1 0 0 0 0 -1 0 -1 0 -1 -1 0 0 -1 0 -1 -1 0 0 0 0 -1 0 -1 0 0 -1 0 0 -1 0 0c0,0 0,-1 -1,-1l0 0 0 -1 0 -1 -1 0 0 -1 -1 -1 0 0 0 -1 0 0 -1 -1 0 0 0 0 0 -1 -1 -1 0 0 0 0 -1 -1 0 0 0 0 0 0 -1 -1 0 -1 0 0 0 0 0 0 -1 -1 0 0 0 -1 0 0 -1 0 0 0 0 -1 0 0 -1 0 0 0 0 -1 0 0 -1 -1 0 0 0 0 0 0 -1 -1 0 0 0 -1 0 0 -1 0 0 0c0,-1 0,-1 -1,-1l0 0c0,-1 0,-1 -1,-2l0 0c0,0 -1,0 -1,-1l0 0 -1 -1 0 0c0,0 -1,-1 -1,-1l0 0c-1,-1 -1,-1 -1,-1l0 0c-1,-1 -1,-1 -2,-1l0 0c0,-1 0,-1 -1,-2l0 0c0,0 -1,0 -1,-1l0 0c-1,0 -1,0 -1,-1l0 0c-1,0 -1,-1 -2,-1l0 0c0,0 -1,-1 -1,-1l0 0c0,0 -1,-1 -1,-1l0 0c-1,0 -1,-1 -2,-1l0 0c0,0 -1,-1 -1,-1l0 0c-1,0 -1,-1 -2,-1l0 0c0,0 -1,-1 -1,-1l0 0c-1,0 -1,-1 -2,-1l0 0c0,0 -1,-1 -1,-1l0 0c-1,0 -1,-1 -2,-1l0 0c0,0 -1,-1 -1,-1l0 0c-1,0 -1,-1 -2,-1l0 0c0,0 -1,-1 -1,-1l0 0c-1,0 -1,0 -2,-1l0 0c-1,0 -1,0 -2,-1l0 0c0,0 -1,0 -1,0l0 0c-1,-1 -1,-1 -2,-1l0 0c-1,-1 -1,-1 -2,-1l0 0c0,0 -1,-1 -2,-1l0 0c0,0 -1,0 -1,-1l0 0c-1,0 -2,0 -2,0l0 0c-1,-1 -1,-1 -2,-1l0 0c-1,0 -1,-1 -2,-1l0 0c-1,0 -1,0 -2,-1l0 0c0,0 -1,0 -2,0l0 0c0,-1 -1,-1 -2,-1l0 0 -2 -1 0 0c0,0 -1,0 -2,0l0 0c0,-1 -1,-1 -2,-1l0 0c0,0 -1,0 -2,-1l0 0c-1,0 -1,0 -2,0l0 0c-1,0 -1,0 -2,-1l0 0c-1,0 -1,0 -2,0l0 0c-1,0 -2,0 -2,-1l0 0c-1,0 -2,0 -3,0l0 0c0,0 -1,0 -2,-1l0 0 -2 0 0 0c-1,0 -2,0 -2,0l0 0c-1,-1 -2,-1 -3,-1l0 0c0,0 -1,0 -2,0l0 0c-1,0 -2,0 -2,-1l0 0c-1,0 -2,0 -3,0l0 0c0,0 -1,0 -2,0l0 0c-1,0 -2,0 -3,0l0 0 -2 -1 0 0c-1,0 -2,0 -3,0l0 0c0,0 -1,0 -2,0l0 0c-1,0 -2,0 -3,0l0 0c0,0 -1,0 -2,0l0 0c-1,-1 -2,-1 -3,-1l0 0c-1,0 -2,0 -2,0l0 0c-1,0 -2,0 -3,0l0 0c-1,0 -2,0 -3,0l0 0c-1,0 -2,0 -3,0l0 0 -1 0 0 0 -2 0 0 0 -2 0 0 0 -2 0 0 0 -2 0 -2 0 0 0 -1 0 -2 0 0 0 -2 0 -2 0 0 0 -1 0 -2 0 -2 0 -1 0 -2 0 0 0 -1 0 0 0 -2 0 -2 0 0 0 -1 0 0 0 -2 0 0 0 -1 0 -2 0 -1 0 0 0 -2 0 0 0 -2 0 0 0 -1 0 0 0 -2 0 -1 0 -2 0 -1 0 0 0 -2 0 0 0 -1 0 -2 0 0 0 -1 0 0 0 -2 0 0 0 -1 0 -2 0 0 0 -2 0 -1 0 0 0 -2 0 0 0 -1 0 0 0 -2 0 0 0 -2 0 0 0 -1 0 0 0 -2 0 0 0 -1 0 0 0 -2 0 -2 0 0 0 -1 0 0 0 -2 0 0 0 -2 -1 0 0 -2 0 -1 0 0 0 -2 0 0 0 -2 0 0 0 -2 0 0 0 -2 0 0 0 -1 0 -2 0 0 0 -2 0 0 0 -2 -1 0 0 -2 0 0 0 -2 0 0 0 -2 0 0 0 -1 0 0 0 -1 0 0 0 -1 0 0 0 -1 0 0 0 -1 0 0 0 -1 -1 -1 0 0 0 -1 0 0 0 -2 0 0 0 -1 0 -1 0 0 0 -1 0 0 0 -1 0 -1 0 -1 -1 -2 0 0 0 -1 0 0 0 -1 0 -1 0 0 0 -1 0c-1,-1 -2,-1 -3,-1l-1 0 0 0 -1 0 -1 0 0 0 -1 -1 -1 0 -1 0 0 0 -1 0 -2 0 0 0 -1 -1 0 0 -1 0 0 0 -1 0 -1 0 0 0 -1 0 0 0 -1 -1 -1 0 -1 0 0 0 -1 0 0 0 -2 -1 -1 0 -1 0 0 0 -1 0 0 0 -1 -1 -1 0 -1 0 0 0 -1 0 0 0 -1 -1 -1 0 -1 0 -1 0 -1 -1 -1 0 0 0 -1 0 -1 0 -1 -1 -1 0 -1 0 0 0 -1 -1 -1 0 -1 0c-2,-1 -3,-1 -5,-2l-2 -1c-1,0 -3,-1 -4,-1l-1 0c-2,-1 -4,-2 -5,-2l-2 -1c-1,-1 -2,-1 -4,-2l-1 0c-1,-1 -3,-2 -5,-2l-1 -1c-1,-1 -3,-1 -4,-2l-1 -1c-2,0 -3,-1 -5,-2l-1 -1c-1,0 -2,-1 -4,-2l-1 -1c-1,0 -3,-1 -4,-2l-1 -1c-1,-1 -3,-1 -4,-2l-1 -1c-2,-1 -3,-2 -4,-3l-1 0c-1,-1 -2,-2 -4,-3l-1 -1c-1,-1 -2,-2 -3,-3l-1 -1c-2,-1 -3,-2 -4,-3l-1 -1c-1,-1 -2,-2 -3,-2l-1 -1c-2,-2 -3,-3 -4,-4l-1 -1c-1,-1 -2,-2 -3,-3l-1 -1c-1,-1 -2,-2 -3,-3l-1 -1c-1,-1 -2,-2 -3,-3l-1 -1c-1,-2 -2,-3 -3,-4l-1 -1c-1,-1 -2,-2 -3,-3l-1 -2c-1,-1 -1,-2 -2,-3 0,0 -1,0 -1,-1 -1,-1 -2,-2 -3,-4l-1 -1c-1,-1 -1,-2 -2,-3l-1 -1c-1,-2 -1,-3 -2,-4l-1 -2c-1,-1 -1,-2 -2,-3l-1 -2c-1,-1 -2,-2 -2,-4 -1,0 -1,-1 -1,-1 -1,-1 -1,-2 -2,-3l-1 -2c0,-1 -1,-2 -1,-3 -1,-1 -1,-2 -2,-3 0,-1 -1,-2 -1,-3l-1 -2c0,-1 -1,-2 -1,-3 -1,-1 -1,-1 -1,-2 -1,-1 -1,-2 -2,-4 0,0 0,-1 0,-2 -1,-1 -1,-2 -1,-2 -1,-1 -1,-2 -1,-2 -1,-2 -1,-3 -2,-5 0,0 0,-1 0,-2 -1,-1 -1,-2 -1,-2 0,-1 -1,-2 -1,-3 0,-1 -1,-2 -1,-4 0,-1 0,-1 -1,-2 0,-1 0,-2 0,-3 -1,-1 -1,-1 -1,-2 0,-1 -1,-3 -1,-4 0,-1 0,-2 0,-3 -1,-1 -1,-1 -1,-2 0,-1 0,-2 0,-3 -1,-1 -1,-2 -1,-3 0,-1 0,-2 0,-3 -1,-1 -1,-2 -1,-3 0,-1 0,-2 0,-3 0,0 0,-1 0,-2 -1,-1 -1,-2 -1,-3 0,-2 0,-3 0,-4 0,-1 0,-1 0,-2 0,-1 0,-2 0,-3 -1,-1 -1,-2 -1,-2l0 0zm-29 663c-12,-17 -9,-34 0,-52 3,-5 7,-10 11,-15 4,-6 8,-11 13,-17 29,-32 72,-93 100,-115l1 -1 0 0 0 0 0 -1 1 0 0 0 1 -1 0 0 1 0 0 0 0 0 1 -1 0 0 0 0 1 -1 0 0 1 0 0 0 1 -1 0 0 0 0 0 0 1 0c0,0 1,-1 1,-1l0 0 1 0 0 0 1 -1 0 0 0 0 0 0 1 0 0 0 1 0 0 0c0,-1 1,-1 1,-1l0 0 1 0 0 0 1 0 0 0c0,-1 1,-1 2,-1l0 0c1,0 1,0 2,0l0 0 1 0 0 0c8,-1 16,1 24,6l0 0c13,7 26,19 43,33 49,38 121,88 213,77 153,-18 290,-194 142,-367l0 1 1 0 0 0 0 0 0 0 0 0 0 0 0 0 0 0 0 0 0 1 0 0 0 0 0 0 0 0c1,1 1,1 2,2l0 0c6,10 11,20 16,31l0 1c5,11 8,22 11,34l0 0c0,0 0,1 0,2 1,1 1,2 1,3l0 0c0,1 0,2 1,3l0 0c0,1 0,2 0,3l0 0 0 1 0 0c1,1 1,2 1,3l0 0c0,2 0,3 0,5l0 0c1,1 1,3 1,4l0 0c0,1 0,2 0,3l0 0 0 2 0 2 0 0 1 1 0 0c0,1 0,2 0,3l0 0 0 2c0,1 0,2 0,3l0 0c0,1 0,2 0,3l0 0c0,1 0,3 0,4l0 2 0 0 0 1 0 0 0 2 0 1 0 2 0 0 0 1 0 0 0 2 -1 1 0 2 0 1 0 2 0 2 0 1 0 2 -1 1 0 2 0 1 0 2 0 1 -1 2 0 1 0 2 0 0 0 1 0 0 -1 2 0 1 0 2 0 0 0 1 0 0 -1 2 0 0 0 1 0 0 0 2 0 0 -1 1 0 0 0 2 0 0 0 1 0 0 -1 2 0 0c0,1 0,2 -1,3l0 0c0,1 0,2 -1,3l0 0c0,1 0,2 -1,3l0 0c0,2 -1,4 -2,7 0,1 0,2 -1,3 0,1 0,2 -1,3 0,1 -1,2 -1,3 -1,1 -1,2 -1,3 -1,2 -2,4 -3,6 0,1 -1,2 -1,3l0 0c-1,1 -1,2 -2,3 0,1 -1,2 -1,3l0 0c-1,2 -2,4 -4,6 -1,2 -2,4 -3,6l0 0c0,1 -1,2 -2,3l0 0c0,1 -1,2 -1,3 -1,1 -2,2 -2,3 -1,2 -3,4 -4,5 -1,1 -1,2 -2,3l0 0c-1,1 -1,2 -2,3 -1,1 -1,2 -2,3 -1,0 -2,1 -2,2l0 0c-1,1 -2,2 -2,3 -1,1 -2,2 -3,2l0 0c0,1 -1,2 -2,3l0 0c-1,1 -2,2 -2,3 -1,0 -2,1 -3,2l0 0c0,1 -1,2 -2,3l0 0c-1,0 -2,1 -3,2 0,1 -1,2 -2,2 -1,1 -2,2 -3,3 0,1 -1,1 -2,2 -1,1 -2,2 -3,2 -1,1 -2,2 -3,3l0 0c0,0 -1,1 -2,2 -1,1 -2,1 -3,2l0 0c-1,1 -2,1 -3,2 -1,1 -2,2 -3,2 -1,1 -2,2 -3,2 -1,1 -2,2 -3,2l0 0c-1,1 -2,2 -3,2 -1,1 -2,1 -3,2l0 0c-1,1 -2,1 -3,2l0 0c-1,1 -2,1 -3,2 -1,0 -2,1 -3,2 -1,0 -2,1 -3,1l0 0c-2,1 -3,1 -4,2l0 0c-1,1 -2,1 -3,2l0 0c-1,0 -2,1 -3,1 -2,1 -3,1 -4,2l0 0c-1,0 -2,1 -3,1l0 0c-2,1 -3,1 -4,2l0 0c-1,0 -2,1 -3,1l0 0c-2,0 -3,1 -4,1l0 0c-1,1 -2,1 -4,2 -1,0 -2,0 -3,1l0 0c-2,0 -3,1 -4,1l0 0c-1,0 -3,1 -4,1l0 0c-1,0 -2,1 -4,1l0 0c-1,1 -3,1 -4,1l0 0c-2,1 -3,1 -5,1l0 0c-2,1 -3,1 -5,1l0 0c-1,1 -3,1 -4,1l0 0c-2,1 -3,1 -5,1l0 0c-1,0 -3,0 -4,1l0 0c-2,0 -3,0 -4,0l0 0c-2,0 -3,0 -5,1l0 0c-1,0 -3,0 -4,0 -1,0 -3,0 -4,0 -2,0 -3,0 -5,0 -1,0 -2,0 -4,0 -1,0 -2,0 -4,0 -1,0 -3,0 -4,0 -1,0 -3,0 -4,0 -1,0 -3,0 -4,0 -1,-1 -3,-1 -4,-1 -1,0 -3,0 -4,0l0 0c-1,-1 -2,-1 -4,-1l0 0c-1,0 -2,0 -4,-1 -1,0 -2,0 -3,0 -2,-1 -3,-1 -4,-1 -1,0 -3,-1 -4,-1 -1,0 -2,-1 -4,-1l0 0c-1,0 -2,-1 -3,-1 -1,0 -3,-1 -4,-1 -1,-1 -2,-1 -4,-1 -1,-1 -2,-1 -3,-2 -1,0 -2,-1 -4,-1 -1,0 -2,-1 -3,-1 -1,-1 -3,-1 -4,-2 -1,0 -2,-1 -3,-1 -1,-1 -2,-1 -4,-2l0 0c-1,0 -2,-1 -3,-2 -1,0 -2,-1 -3,-1 -2,-1 -3,-1 -4,-2l0 0c-1,-1 -2,-1 -3,-2l0 0c-1,0 -2,-1 -3,-2l0 0c-2,0 -3,-1 -4,-1 -1,-1 -2,-2 -3,-2 -1,-1 -2,-2 -3,-2 -1,-1 -2,-2 -4,-2 -2,-2 -4,-3 -6,-4 -1,-1 -2,-2 -3,-2 -1,-1 -2,-2 -3,-3l0 0c-1,0 -2,-1 -4,-2 -1,-1 -2,-1 -3,-2l0 0c-1,-1 -2,-2 -3,-2l0 0c-1,-1 -2,-2 -3,-3l0 0c-1,0 -2,-1 -3,-2l0 0c-2,-1 -4,-3 -6,-4l-3 -3 0 0c-3,-2 -6,-5 -9,-7l0 0c-2,-2 -4,-3 -6,-5l-1 0c-2,-1 -4,-3 -6,-5l0 0c-3,-2 -6,-5 -9,-7l-2 -2 0 0 -3 -3 0 0c-30,-26 -61,-59 -99,-21l-1 1 0 0c-1,1 -1,1 -2,1l0 0 -1 1 0 0 -1 1 0 0 -1 1 0 0 -1 2 0 0 -1 1 0 0 -1 1 0 0 -1 1 0 0 -1 1 0 0 -1 1 0 0 -13 17 0 0 -102 127 -1 1 -6 7c-2,3 -3,5 -5,7 -1,1 -1,2 -2,4 0,0 0,0 0,0 0,0 0,0 0,0 -8,16 -6,34 5,48l13 12 13 9zm171 -594c-49,-85 31,-170 110,-125 46,26 79,69 121,92 63,34 150,42 215,-84l0 0 0 0 -1 1 0 0 0 0 0 1 -1 0 0 1 0 0 -1 0 0 1 0 0 -1 1 0 0 0 0 -1 1 0 0 0 1 -1 0 0 0 0 1 -2 2 0 1 0 0 -1 0 -1 1 0 1 0 0 0 0 -1 1 0 0 0 0 0 1 -1 0 0 0 0 1 0 0 -1 0 0 1 0 0 0 0 -1 0 0 1 0 0 0 0 -1 1 0 0 0 0 0 0 0 0 -1 1 0 0 0 0 0 1 0 0 -1 0 0 0 0 1 0 0 0 0 0 0 -1 0 0 0 0 1 0 0 0 0 0 0 -1 1 0 0 0 0 0 0 0 0 0 0 -1 1 0 0 0 0 0 0 0 0 0 0 0 0 0 0 -1 1c-67,61 -136,50 -202,6 -1,-1 -2,-1 -3,-2 -7,-5 -12,-10 -16,-14 -9,-7 -16,-12 -27,-20 -3,-3 -5,-5 -8,-7l0 0c-39,-31 -68,-62 -116,-54l0 0c-1,0 -1,1 -2,1l-1 0c0,0 -1,0 -2,0l-1 1 -1 0c-1,0 -2,0 -3,0l-1 1 -1 0 -2 1 -1 0 -1 0 -1 1 -2 0 -1 1 -1 0 -1 1 -2 0 -1 1 -1 0 -1 1 -1 0 -2 1 -1 1 -1 0 -1 1 -1 0 -1 1 -1 1 -2 0 -1 1 -1 1 -1 0 -1 1 0 0 -1 1 -1 1 -1 0 0 0 -1 1 0 0 -1 1 -1 1 -1 0 0 0 -1 1 0 0 -1 1 -1 1 -1 1 -1 1 0 0 -1 0 0 0 -1 1 -1 1 -1 1 0 0 0 1 -1 1 0 0c-2,1 -3,3 -4,5l-1 1 -1 1 0 0 -1 1 -1 1c0,0 -1,1 -1,2 -1,1 -1,2 -2,3l0 0c-1,0 -1,1 -2,2l0 0c0,1 -1,2 -1,3 -1,1 -2,2 -2,3l0 0c-2,4 -4,9 -6,13 0,1 -1,2 -1,2l0 0 0 2 0 0 -1 1c0,1 0,1 0,2l-1 1 0 2 0 0 0 1 -1 1 0 0 0 1 0 1 -1 2 0 0 0 1 0 0 0 1 0 0 0 2 0 0 0 1 -1 1 0 0 0 1 0 0 0 2 0 1 0 1 0 1 0 2 0 1 0 1 0 0 -1 2 0 1 0 1 0 0 0 1 0 0 0 2 0 1 0 0 1 1 0 2 0 0 0 1 0 1 0 2 0 1 0 1 0 2 1 1 0 0 0 1 0 2 0 1 1 1 0 2 0 1 0 1 1 2 0 1 0 1 1 1 0 0 0 1 0 1 1 1 0 1 0 0 0 1 0 0 0 0 1 1 0 1 0 0 0 1 0 0 0 1 0 0 1 0 0 0 0 1 0 0 0 1 1 1 0 0 0 1 0 0 0 0 0 0 1 1 0 0 0 1 0 0 0 1 1 1 0 0 1 1 0 1 0 1 0 0 1 0 0 1 0 0 1 1 0 0 0 1 0 0 1 1 0 0 0 1 1 0 0 1 0 0 0 1 0 0 1 1 0 0 0 0 1 1 0 0 0 1 0 0 1 0 0 1 0 0 1 1 0 0 0 0 1 1 0 0 0 1 0 0 1 0 0 1 1 1 0 0 0 0 1 1 0 1 0 0 1 0 0 1 0 0 1 1 0 0 1 1 0 0 1 1 0 1 1 0 1 1 0 0 0 1 0 0 0 0 0 0 0 0 0 0 1 0 0 0 0 0 0 1 0 0 0 0 0 0 0 0 0 0 1 0 0 0 0 0 0 0 0 1 0 0 0 0 0 0 0 0 0 0 1 0 0 0 0 0 0 0 0 0 0 0 0 0 0 0 0 0 0 1 0 0 0 0 0 0 0 0 0 0 1 0 0 0 0 0 0 0 0 0 0 0 0 0 0 0 0 0 0 1 0 0 0 0 0 0 0 0 0 0 1 0 0 0 0 0 0 0z"/>
   <path class="fil4" d="M279 1162c-25,-17 -27,-47 -8,-69l122 -152c22,-26 47,-38 77,-17 13,9 26,20 39,31 65,52 130,105 230,78 82,-22 134,-82 152,-151 8,-32 9,-65 2,-97 -6,-33 -21,-64 -44,-91 -113,-119 -222,-56 -343,-92 -17,-5 -33,-15 -45,-28 -12,-12 -21,-28 -26,-46 -7,-28 -3,-57 11,-80 13,-23 35,-41 63,-49 55,-14 85,19 126,53 13,10 30,23 47,37 68,54 148,65 209,-1 7,-6 41,-54 45,-56 6,-3 14,4 18,8 15,14 36,9 44,-11l25 -102c4,-20 11,-38 -5,-51 -2,-3 -4,-5 -7,-7l23 -29 41 2c6,0 11,-5 12,-11 0,-6 -5,-11 -11,-11l-38 -2 -10 -37c-2,-6 -8,-9 -14,-8 -6,2 -10,8 -8,14l11 39 -5 7 0 0 -18 23c-2,-2 -4,-3 -6,-5 -9,-8 -20,-9 -31,-6 -7,2 -13,6 -19,9l-94 47c-16,8 -23,29 -11,44 10,11 26,10 11,29l-21 27c-22,29 -44,24 -67,9 -16,-11 -31,-24 -46,-36 -67,-53 -127,-101 -236,-71 -57,15 -94,44 -121,91 -68,118 -9,271 121,311 22,6 43,10 66,12 43,3 67,2 107,2 59,0 98,19 120,45 11,13 18,27 21,43 4,16 3,32 -1,48 -8,34 -34,64 -75,75 -48,12 -92,-23 -135,-58 -24,-20 -49,-41 -77,-55 -29,-15 -60,-21 -91,-15 -18,3 -36,11 -53,23 -29,21 -51,55 -73,82 -25,31 -116,134 -125,163 -3,10 -5,22 -5,33 0,61 49,111 110,111 25,0 47,-8 65,-21l0 0 1 -1 0 0c-13,-6 -19,-10 -31,-18 -7,-4 -13,-8 -19,-12zm650 -835c-9,1 -16,-7 -17,-16 0,-9 7,-17 16,-17 10,0 17,7 18,16 0,9 -7,17 -17,17z"/>
   <path class="fil5" d="M716 1016c-72,19 -126,-2 -175,-36 55,42 114,75 198,53 82,-22 134,-82 152,-151 8,-32 9,-65 2,-97 -5,-25 -15,-49 -30,-72 -4,-6 -9,-12 -14,-19 -14,-16 -30,-30 -49,-42 10,8 18,16 26,25 23,27 37,58 44,91 7,32 6,65 -2,97 -18,69 -70,129 -152,151zm197 -597c-48,66 -105,133 -198,92 24,14 50,22 75,22 36,1 71,-12 101,-45 0,0 0,0 0,0 0,0 0,0 0,0 0,0 0,0 0,0 3,-3 12,-14 20,-25 11,-14 23,-30 25,-31 6,-3 13,4 18,8 15,14 36,9 44,-11l19 -80c1,-3 -31,89 -64,62 -13,-10 -28,-7 -40,8zm-478 109c-7,-28 -3,-57 11,-80 13,-23 35,-41 63,-49 39,-10 66,4 93,25 -59,-69 -143,-50 -177,5 -30,46 -22,115 47,156 -2,-2 -4,-4 -6,-6 -2,-1 -3,-3 -5,-5 -12,-12 -21,-28 -26,-46zm570 -287l-11 15 17 13 12 -14c-5,1 -16,-7 -18,-14zm-739 859c1,-2 3,-4 5,-6l6 -8 116 -145c20,-24 44,-37 71,-20 -6,-5 -11,-9 -17,-14 -30,-21 -56,-9 -77,17l-114 142 -8 11c-1,1 -2,2 -3,3 -14,19 -12,42 3,59 3,2 5,4 8,7 1,0 2,1 3,1 5,4 11,9 17,13 -19,-16 -23,-40 -10,-60z"/>
   <path class="fil6" d="M387 349c28,13 42,20 64,36 3,-24 -3,-47 -11,-71 -21,9 -38,21 -53,35zm312 104c26,-5 51,-18 70,-36 0,0 0,0 0,0 -4,-2 -8,-4 -13,-7 -13,-9 -25,-19 -37,-29 -3,30 -9,48 -20,72zm-52 266c23,0 42,3 59,8 -1,-4 -3,-7 -4,-10 -9,-22 -11,-39 -13,-62 -16,13 -29,30 -37,49 -3,5 -5,10 -7,15 1,0 2,0 2,0zm-95 -1c23,1 41,1 60,1 -12,-23 -17,-41 -21,-68 -19,19 -33,41 -39,67zm-78 -13c13,4 26,7 38,9 -1,-5 -2,-9 -3,-13 -4,-21 -4,-38 -2,-59 -20,12 -36,29 -48,48 -2,3 -3,5 -5,8 7,2 13,5 20,7zm-149 -192c26,-12 44,-16 70,-19 -18,-20 -41,-33 -66,-41 -4,19 -5,38 -5,57 0,1 1,2 1,3zm13 -88c28,1 43,0 69,6 -8,-24 -20,-42 -39,-60 -5,7 -11,15 -15,23 -6,11 -11,21 -15,31zm-49 586c-4,-26 -18,-51 -34,-70 -14,16 -27,33 -41,49 13,2 27,3 38,6 13,4 24,8 37,15zm-20 -87l14 -17c8,-10 17,-21 25,-32 16,19 32,45 36,70 -24,-12 -44,-18 -75,-21zm253 -94c-3,32 -8,50 -20,74 27,-5 51,-18 70,-36 -16,-13 -32,-27 -50,-38l0 0zm70 54c-1,31 -6,49 -17,74 27,-6 50,-20 69,-39 -18,-9 -35,-22 -52,-35zm194 -24c-6,19 -18,37 -35,51 30,1 53,4 77,14 -5,-26 -20,-48 -42,-65zm-159 -459c27,-4 53,-18 73,-35 -17,-13 -34,-26 -52,-37 -3,30 -9,48 -21,72z"/>
   <path class="fil7" d="M1707 560c0,35 -13,63 -39,83 -26,20 -59,30 -99,30 -32,0 -62,-9 -92,-26 -14,-9 -27,-22 -36,-38 -9,-17 -14,-36 -14,-57l66 -3c0,18 8,33 24,44 16,10 34,15 53,15 44,0 66,-15 66,-46 0,-25 -15,-40 -45,-44l-60 -6c-31,-5 -55,-16 -73,-33 -17,-17 -26,-42 -26,-74 0,-32 12,-58 38,-79 25,-21 57,-32 96,-32 39,0 71,10 94,30 24,20 36,45 36,76l-65 3c-6,-30 -26,-45 -61,-45 -22,0 -38,4 -50,13 -12,9 -18,20 -18,32 0,13 4,23 13,30 9,7 19,11 32,13l60 6c66,9 100,45 100,108zm1238 110l-82 0c-73,0 -89,-21 -89,-91l0 -281 73 0 0 268c0,22 7,39 31,39l88 0 -21 65zm355 0l-76 0 -21 -64 -116 0 -21 64 -75 0 114 -341c5,-12 12,-20 18,-24 6,-5 14,-7 24,-7 9,0 17,2 22,6 6,4 12,13 16,25l115 341zm-114 -125l-39 -148 -42 148 81 0zm-1265 16l61 -1c0,3 0,8 -1,15 0,8 0,13 -1,15 0,3 0,7 -1,13 -1,5 -1,9 -2,12 -1,2 -2,6 -4,10 -6,18 -23,33 -51,43 -18,6 -36,9 -56,9 -19,0 -36,-3 -52,-9 -16,-6 -28,-14 -37,-24 -21,-22 -31,-62 -31,-122 0,-59 10,-100 31,-121 9,-10 21,-18 37,-24 16,-7 33,-10 52,-10 38,0 66,10 86,28 19,19 29,45 29,79l-61 0c0,-15 -4,-27 -12,-34 -8,-8 -22,-12 -43,-12 -20,0 -34,7 -41,20 -7,13 -10,32 -10,58l0 27c0,41 8,67 24,76 7,5 17,7 29,7 12,0 21,-1 29,-3 7,-3 13,-6 16,-12 3,-6 5,-11 6,-17 2,-5 2,-13 3,-23zm153 -304c16,0 27,3 32,8 5,5 7,16 7,32 0,16 -2,27 -8,32 -5,5 -15,7 -31,7 -17,0 -27,-2 -32,-8 -5,-5 -8,-15 -8,-31 0,-17 3,-27 8,-32 5,-5 15,-8 32,-8zm33 413l-68 0 0 -288 68 0 0 288z"/>
   <path class="fil4" d="M2410 330c22,21 32,53 32,94 0,42 -10,73 -32,95 -21,21 -51,32 -91,32l-71 0 0 119 -73 0 0 -372 144 0c40,0 70,10 91,32zm-40 94c0,-41 -18,-62 -54,-62l-68 0 0 123 68 0c17,0 31,-4 40,-14 9,-9 14,-25 14,-47zm355 -53l-113 332c-5,15 -12,27 -21,36 -13,13 -33,20 -58,20l-48 0 0 -61 37 0c10,0 17,-1 22,-5 4,-3 8,-10 12,-19l5 -15 -90 -288 72 0 53 208 58 -208 71 0z"/>
   <path class="fil7" d="M2864 1026c0,-2 -1,-4 -1,-7 0,-4 1,-7 1,-9 1,-3 3,-7 7,-12 7,-12 18,-27 33,-44 12,-14 20,-26 26,-35 5,-8 8,-17 8,-27 0,-13 -7,-20 -23,-20 -7,0 -15,1 -24,3 -8,2 -14,4 -19,7 -2,-4 -3,-10 -3,-17 0,-2 2,-5 7,-7 5,-3 12,-5 20,-6 8,-2 16,-3 25,-3 17,0 28,4 34,10 7,7 10,17 10,30 0,9 -2,17 -5,25 -3,8 -8,15 -13,22 -5,7 -12,16 -21,27 -14,16 -24,30 -31,41l40 0c6,0 13,0 20,-1 7,-1 12,-1 14,-1 0,9 0,16 0,19 -1,4 -2,5 -5,5l-100 0zm-1362 2c-5,1 -12,1 -20,1 -6,0 -11,-5 -14,-17 -4,-20 -12,-52 -21,-96 -10,-44 -17,-73 -20,-88l0 -4c0,-2 2,-3 5,-3l20 0 25 114c2,13 5,33 10,61l1 11c4,-29 7,-53 11,-72l22 -107c1,-3 1,-5 2,-6 1,-1 2,-1 4,-1l21 0 -46 207zm133 -100c0,44 -1,74 -2,92 -11,7 -25,10 -42,10 -9,0 -16,-1 -21,-3 -6,-2 -11,-6 -15,-13 -3,-6 -5,-16 -5,-29 0,-18 4,-31 11,-38 7,-7 17,-10 29,-10 9,0 16,1 21,4l0 -23c0,-7 -1,-12 -4,-14 -3,-3 -8,-4 -14,-4 -15,0 -28,2 -39,7 -3,-4 -4,-9 -4,-14 0,-4 1,-7 4,-8 2,-2 8,-4 17,-6 8,-1 17,-2 28,-2 12,0 22,3 27,8 6,6 9,15 9,28l0 15zm-24 30c-4,-2 -8,-3 -14,-3 -7,0 -12,2 -16,6 -4,4 -6,12 -6,24 0,10 1,17 5,20 3,3 8,5 15,5 6,0 12,-1 15,-5 1,-6 1,-22 1,-47zm48 -68c13,-9 26,-13 40,-13 14,0 21,4 21,12 0,5 -1,10 -3,14 -4,-2 -9,-3 -14,-3 -7,0 -14,2 -20,6l0 117c0,1 0,3 -1,3 -1,1 -3,1 -7,1 -4,0 -9,0 -16,0l0 -137zm158 38c0,44 -1,74 -2,92 -11,7 -25,10 -42,10 -9,0 -16,-1 -21,-3 -6,-2 -11,-6 -15,-13 -3,-6 -5,-16 -5,-29 0,-18 4,-31 11,-38 7,-7 17,-10 29,-10 9,0 16,1 21,4l0 -23c0,-7 -1,-12 -4,-14 -3,-3 -8,-4 -14,-4 -15,0 -28,2 -39,7 -3,-4 -4,-9 -4,-14 0,-4 1,-7 4,-8 3,-2 8,-4 17,-6 8,-1 17,-2 28,-2 12,0 22,3 27,8 6,6 9,15 9,28l0 15zm-24 30c-4,-2 -8,-3 -14,-3 -7,0 -12,2 -16,6 -4,4 -6,12 -6,24 0,10 1,17 5,20 3,3 8,5 15,5 6,0 12,-1 15,-5 1,-6 1,-22 1,-47zm110 -137c0,-3 1,-6 2,-7 2,-2 4,-3 7,-3 3,0 8,-1 15,-1l0 211c-12,6 -26,9 -42,9 -10,0 -19,-1 -25,-5 -7,-3 -13,-10 -17,-20 -4,-11 -6,-26 -6,-46 0,-28 4,-48 13,-62 8,-13 19,-20 32,-20 9,0 16,2 21,6l0 -62zm0 80c-3,-2 -7,-4 -13,-4 -18,0 -27,20 -27,59 0,15 1,26 3,33 2,8 4,13 7,16 3,3 8,4 13,4 7,0 13,-1 17,-4l0 -104zm98 106c12,0 23,-3 34,-9 1,4 2,10 2,16 0,5 -4,8 -12,12 -8,3 -17,4 -29,4 -10,0 -18,-2 -25,-5 -7,-4 -12,-11 -16,-21 -4,-10 -6,-24 -6,-43 0,-23 3,-40 7,-53 5,-12 11,-21 19,-25 7,-4 16,-6 26,-6 25,0 38,16 38,47 0,16 -1,29 -3,38 -16,4 -37,5 -62,5 0,15 3,26 7,32 4,5 11,8 20,8zm-2 -109c-15,0 -24,17 -25,50 18,0 31,-1 40,-3 1,-5 2,-11 2,-18 0,-11 -2,-19 -4,-23 -2,-4 -7,-6 -13,-6zm61 -8c13,-9 26,-13 40,-13 14,0 21,4 21,12 0,5 -1,10 -3,14 -4,-2 -9,-3 -14,-3 -7,0 -14,2 -20,6l0 117c0,1 0,3 -1,3 -1,1 -3,1 -7,1 -4,0 -9,0 -16,0l0 -137zm66 64c0,-52 17,-77 50,-77 11,0 19,2 26,6 6,5 11,13 14,24 4,11 5,26 5,46 0,27 -4,46 -12,59 -8,12 -20,18 -36,18 -11,0 -20,-2 -26,-5 -7,-4 -12,-12 -15,-23 -4,-11 -6,-27 -6,-48zm26 0c0,16 1,28 3,36 1,8 4,13 7,16 3,3 6,4 11,4 7,0 13,-4 17,-12 4,-8 5,-23 5,-45 0,-15 0,-27 -2,-35 -1,-8 -3,-14 -6,-17 -3,-3 -7,-4 -12,-4 -7,0 -13,4 -17,12 -4,9 -6,24 -6,45zm86 57c0,-4 2,-8 5,-11 2,-3 6,-4 10,-4 11,0 16,6 16,17 0,7 -1,14 -4,21 -3,6 -6,12 -10,17 -4,4 -7,7 -9,7 -5,0 -8,-3 -9,-7 3,-5 5,-10 6,-13 1,-4 2,-8 2,-12 -4,-3 -7,-8 -7,-15zm155 -193c10,0 17,1 21,5 5,3 7,7 7,11 0,5 -1,10 -4,15 -6,-5 -12,-8 -19,-8 -7,0 -14,2 -19,7 -6,5 -10,14 -14,27 -3,13 -5,32 -5,56 0,20 1,35 4,45 2,11 5,18 10,22 4,4 9,6 16,6 5,0 10,-1 15,-3 5,-2 9,-4 12,-6 2,5 4,9 4,14 0,6 -4,11 -11,15 -7,4 -15,6 -26,6 -11,0 -19,-2 -26,-7 -7,-4 -13,-14 -17,-28 -4,-14 -6,-35 -6,-62 0,-32 3,-56 9,-73 5,-17 12,-28 21,-34 8,-5 18,-8 28,-8zm135 202c-13,7 -28,10 -44,10 -12,0 -21,-2 -27,-5 -6,-4 -11,-9 -13,-16 -3,-7 -4,-16 -4,-28l0 -96c0,-2 0,-3 1,-4 1,-1 3,-1 7,-1 4,0 10,0 17,0l0 103c0,10 1,17 4,21 2,4 8,6 16,6 7,0 14,-2 19,-6l0 -119c0,-2 1,-3 2,-4 0,-1 3,-1 6,-1 4,0 10,0 16,0l0 140zm28 -199c0,-3 0,-6 1,-7 2,-2 4,-3 7,-3 3,0 8,-1 15,-1l0 77c9,-7 20,-10 32,-10 12,0 21,4 27,13 6,9 9,24 9,45 0,38 -5,63 -16,76 -11,13 -25,19 -41,19 -16,0 -27,-3 -34,-9l0 -200zm23 184c3,3 8,4 14,4 7,0 14,-5 19,-14 6,-10 9,-28 9,-55 0,-15 -2,-26 -5,-32 -4,-7 -9,-10 -16,-10 -8,0 -15,3 -21,9l0 98zm170 -77c0,44 -1,74 -2,92 -11,7 -25,10 -43,10 -8,0 -15,-1 -21,-3 -6,-2 -10,-6 -14,-13 -3,-6 -5,-16 -5,-29 0,-18 3,-31 10,-38 8,-7 17,-10 29,-10 9,0 17,1 22,4l0 -23c0,-7 -2,-12 -5,-14 -3,-3 -7,-4 -14,-4 -15,0 -28,2 -39,7 -2,-4 -3,-9 -3,-14 0,-4 1,-7 3,-8 3,-2 9,-4 17,-6 9,-1 18,-2 28,-2 13,0 22,3 28,8 6,6 9,15 9,28l0 15zm-24 30c-4,-2 -9,-3 -14,-3 -7,0 -13,2 -17,6 -4,4 -6,12 -6,24 0,10 2,17 5,20 4,3 9,5 15,5 7,0 12,-1 16,-5 0,-6 1,-22 1,-47zm47 53c0,-4 2,-8 5,-11 2,-3 6,-4 10,-4 11,0 16,6 16,17 0,7 -1,14 -4,21 -3,6 -6,12 -10,17 -4,4 -7,7 -9,7 -5,0 -8,-3 -9,-7 3,-5 5,-10 6,-13 1,-4 2,-8 2,-12 -4,-3 -7,-8 -7,-15zm215 -72c0,-30 4,-52 12,-67 9,-15 23,-23 41,-23 19,0 32,7 40,20 9,14 13,35 13,63 0,33 -4,58 -12,73 -8,16 -22,24 -42,24 -20,0 -33,-7 -41,-22 -8,-14 -11,-37 -11,-68zm25 2c0,16 1,29 3,39 1,10 4,17 8,21 4,4 9,6 16,6 11,0 18,-6 22,-17 5,-12 7,-32 7,-58 0,-21 -2,-37 -6,-47 -4,-10 -11,-15 -21,-15 -10,0 -18,6 -22,18 -5,12 -7,29 -7,53zm136 -67c-10,1 -23,4 -33,6 -2,-4 -4,-11 -4,-18 0,-1 4,-3 12,-5 7,-2 16,-4 25,-6 9,-2 16,-3 19,-3 3,0 5,0 7,1 0,53 -1,108 -1,161 0,3 2,14 -1,16 0,0 -2,1 -3,1 -6,0 -17,-1 -20,-1l-1 -152zm154 -26c0,3 0,6 0,9 0,5 0,10 -1,12 -24,47 -36,96 -36,149 0,10 -5,8 -15,8 -4,0 -5,0 -10,0 1,-56 10,-102 33,-154 -15,1 -39,1 -69,1 -4,0 -4,-10 -4,-24l102 -1z"/>
  </g>
 </g>
</svg>
